PathFileType	4	(X/Y/Z)	/Users/itak/Documents/Research/Walk-IL/dataset/trc/00064_00006.trc
DataRate	CameraRate	NumFrames	NumMarkers	Units	OrigDataRate	OrigDataStartFrame	OrigNumFrames
100.000000	100.000000	4	53	mm	100.000000	191	764
Frame#	Time	RPSI			LPSI			L3			STRN			T10			C7			CLAV			RBAK			LBAK			LSHO			LUPA			LAEL			LAOL			LWTS			LWPS			LFRA			LIFD			LHPS			LHTS			RSHO			RUPA			RAEL			RAOL			RWTS			RWPS			RFRA			RIFD			RHTS			RHPS			RBHD			LFHD			RFHD			LBHD			LHIP			RHIP			RASI			LASI			LKNE			LTHI			LANK			LTIP			LTOE			LMT1			LMT5			LHEE			RKNE			RTHI			RANK			RTIP			RTOE			RMT1			RMT5			RHEE			
		X1	Y1	Z1	X2	Y2	Z2	X3	Y3	Z3	X4	Y4	Z4	X5	Y5	Z5	X6	Y6	Z6	X7	Y7	Z7	X8	Y8	Z8	X9	Y9	Z9	X10	Y10	Z10	X11	Y11	Z11	X12	Y12	Z12	X13	Y13	Z13	X14	Y14	Z14	X15	Y15	Z15	X16	Y16	Z16	X17	Y17	Z17	X18	Y18	Z18	X19	Y19	Z19	X20	Y20	Z20	X21	Y21	Z21	X22	Y22	Z22	X23	Y23	Z23	X24	Y24	Z24	X25	Y25	Z25	X26	Y26	Z26	X27	Y27	Z27	X28	Y28	Z28	X29	Y29	Z29	X30	Y30	Z30	X31	Y31	Z31	X32	Y32	Z32	X33	Y33	Z33	X34	Y34	Z34	X35	Y35	Z35	X36	Y36	Z36	X37	Y37	Z37	X38	Y38	Z38	X39	Y39	Z39	X40	Y40	Z40	X41	Y41	Z41	X42	Y42	Z42	X43	Y43	Z43	X44	Y44	Z44	X45	Y45	Z45	X46	Y46	Z46	X47	Y47	Z47	X48	Y48	Z48	X49	Y49	Z49	X50	Y50	Z50	X51	Y51	Z51	X52	Y52	Z52	X53	Y53	Z53	

192	1.91	363.4544067382812	1009.933654785156	1081.555541992188	276.7733459472656	1004.938537597656	930.4717407226562	320.2301025390625	1070.792846679688	999.8573608398438	556.4012451171875	1263.443115234375	893.3861694335938	308.1012268066406	1204.483642578125	998.01318359375	367.6065979003906	1470.228149414062	973.04150390625	529.4156494140625	1378.315307617188	903.6361083984375	336.4808959960938	1332.409912109375	1065.477416992188	306.48046875	1434.061645507812	890.0418090820312	372.0133666992188	1438.198608398438	782.7684936523438	320.8684997558594	1316.144897460938	714.5870361328125	321.1772766113281	1103.874633789062	674.2564086914062	304.2748413085938	1082.055908203125	779.4644775390625	436.6412963867188	867.7398681640625	673.5261840820312	357.7060241699219	855.9838256835938	646.7120971679688	336.9418640136719	996.7306518554688	651.3262329101562	462.2274780273438	683.2843627929688	677.755126953125	391.5237121582031	776.094970703125	630.7418823242188	457.6350708007812	786.7942504882812	656.3385009765625	494.8535766601562	1432.053588867188	1108.0830078125	504.6839294433594	1365.647827148438	1171.756103515625	468.321533203125	1114.79248046875	1238.777465820312	448.2222290039062	1082.522094726562	1145.160522460938	569.9298706054688	849.5574951171875	1167.534423828125	519.9804077148438	842.5499877929688	1238.773681640625	478.0111389160156	1032.144165039062	1248.822265625	542.8521728515625	659.7078857421875	1158.525390625	577.750732421875	742.3849487304688	1166.056030273438	540.99560546875	749.3479614257812	1232.898681640625	394.4539489746094	1650.868408203125	961.4808349609375	587.862548828125	1669.184814453125	866.9879150390625	478.987548828125	1671.515625	803.8800048828125	518.4121704101562	1640.77197265625	1021.087646484375	334.4786682128906	943.8084106445312	804.64306640625	454.3460388183594	937.8985595703125	1124.007202148438	559.720947265625	957.089599609375	1056.0322265625	458.2425842285156	954.12451171875	807.141357421875	530.1918334960938	502.8933410644531	823.3696899414062	448.1310729980469	627.8037719726562	797.3209838867188	464.3566589355469	44.59830093383789	899.7131958007812	489.9921875	252.0901184082031	851.4903564453125	652.8084106445312	41.55414962768555	816.5993041992188	632.91064453125	40.82545852661133	885.4385375976562	540.4755249023438	39.13422393798828	820.1992797851562	452.6824645996094	43.47624206542969	990.4893798828125	558.677490234375	497.2492065429688	1101.080322265625	546.0472412109375	770.0806884765625	1101.426635742188	189.7610321044922	226.1424255371094	1283.169189453125	483.3464050292969	411.1582641601562	1149.75927734375	305.6062927246094	61.50194931030273	1222.08837890625	258.7088623046875	102.5693969726562	1190.307373046875	264.7785949707031	129.7766571044922	1287.07080078125	151.2900543212891	259.3722229003906	1232.9599609375	
193	1.92	371.4317626953125	1010.378112792969	1076.903442382812	282.70263671875	1005.6083984375	927.2032470703125	326.7857055664062	1071.770874023438	995.73388671875	561.6975708007812	1264.3955078125	886.5648193359375	314.0996704101562	1205.220947265625	993.46142578125	373.4342651367188	1470.962036132812	967.8493041992188	534.755859375	1379.247192382812	897.1944580078125	343.1234436035156	1333.143432617188	1060.458862304688	311.5768432617188	1434.945068359375	885.3312377929688	376.4039306640625	1439.050903320312	777.5580444335938	325.3943786621094	1316.831420898438	709.5874633789062	326.8215942382812	1104.590087890625	669.0225830078125	310.0370483398438	1082.55078125	774.1959838867188	443.0396728515625	868.8740234375	667.6721801757812	364.180419921875	856.968505859375	640.8191528320312	342.9424438476562	997.6105346679688	645.8358154296875	469.1531372070312	684.4775390625	671.3065185546875	398.2719421386719	777.2687377929688	624.5697021484375	464.3171081542969	788.0537719726562	650.2464599609375	501.7390441894531	1432.805419921875	1101.894775390625	511.8925476074219	1366.511596679688	1165.540649414062	475.4253234863281	1115.861450195312	1233.04248046875	454.986328125	1083.437377929688	1139.571899414062	576.19921875	850.263427734375	1161.930541992188	526.590576171875	843.5465087890625	1233.430786132812	485.0420227050781	1033.238037109375	1243.19775390625	548.8091430664062	660.43505859375	1153.638305664062	583.8850708007812	743.0990600585938	1160.716064453125	547.4535522460938	750.2940063476562	1227.7421875	400.3483581542969	1651.904052734375	955.6663818359375	593.1250610351562	1669.745483398438	859.6298217773438	483.783935546875	1672.037963867188	797.3006591796875	524.8882446289062	1641.797729492188	1014.354187011719	338.0597839355469	944.3788452148438	800.3180541992188	463.507568359375	938.513427734375	1117.689453125	567.31103515625	958.1461791992188	1047.779052734375	461.8414916992188	954.8544311523438	800.512939453125	530.894775390625	502.0828552246094	820.573974609375	449.4771423339844	627.3820190429688	794.386962890625	464.2756652832031	44.47792434692383	899.6731567382812	490.1046447753906	251.7323455810547	850.3341674804688	652.748779296875	41.56584167480469	816.5831298828125	632.7915649414062	40.93670272827148	885.26708984375	540.3510131835938	38.9453239440918	820.0701904296875	452.7093505859375	43.56132125854492	990.5169677734375	575.6488647460938	498.4498291015625	1087.771240234375	557.3771362304688	771.2869262695312	1092.015014648438	209.6787109375	226.0401763916016	1274.37939453125	501.4265441894531	411.8951721191406	1136.836791992188	326.4952087402344	64.45070648193359	1207.806518554688	278.3370056152344	105.3527984619141	1177.791015625	286.1909790039062	130.81787109375	1274.891357421875	169.6174621582031	259.6830444335938	1225.595703125	
194	1.93	379.4479370117188	1010.942932128906	1072.21044921875	288.648193359375	1006.383483886719	923.9774780273438	333.3313293457031	1072.7421875	991.6685791015625	566.8862915039062	1265.38623046875	879.7564086914062	320.0523071289062	1205.950561523438	989.0362548828125	379.2303466796875	1471.664184570312	962.7645874023438	540.010986328125	1380.219482421875	890.7792358398438	349.7639465332031	1333.8671875	1055.54541015625	316.5691528320312	1435.829833984375	880.7791137695312	380.6111755371094	1439.953857421875	772.4713134765625	329.7055358886719	1317.538818359375	704.784423828125	332.3887939453125	1105.336791992188	663.9874267578125	315.8649291992188	1083.075073242188	769.1435546875	449.394287109375	870.0582885742188	661.8572387695312	370.6024169921875	858.0455932617188	635.0062255859375	348.8849182128906	998.5528564453125	640.501220703125	475.9364929199219	685.6898803710938	664.7821655273438	404.9226989746094	778.529052734375	618.4104614257812	470.9251708984375	789.3541259765625	644.1538696289062	508.6011962890625	1433.594848632812	1095.73779296875	519.0995483398438	1367.432861328125	1159.356689453125	482.4669189453125	1117.009155273438	1227.35791015625	461.6646728515625	1084.437744140625	1134.03173828125	582.3592529296875	851.0228271484375	1156.376708984375	533.0413208007812	844.5965576171875	1228.109008789062	491.9818115234375	1034.402221679688	1237.626953125	554.4763793945312	661.233154296875	1148.703979492188	589.8079223632812	743.85302734375	1155.39501953125	553.6674194335938	751.278564453125	1222.574096679688	406.1998596191406	1653.013916015625	949.917724609375	598.3289184570312	1670.2734375	852.3290405273438	488.5185241699219	1672.562255859375	790.797607421875	531.28466796875	1642.8408203125	1007.671142578125	341.601318359375	945.0072631835938	796.0616455078125	472.6576538085938	939.2398071289062	1111.375122070312	574.81201171875	959.2175903320312	1039.497436523438	465.3309631347656	955.6110229492188	793.936767578125	531.3060302734375	501.2950744628906	817.8517456054688	450.6102905273438	627.00537109375	791.6198120117188	464.1861572265625	44.3496208190918	899.6316528320312	490.0150756835938	251.4175109863281	849.2456665039062	652.6744384765625	41.58214950561523	816.569580078125	632.64453125	41.0555534362793	885.0664672851562	540.2058715820312	38.7600212097168	819.9278564453125	452.7207641601562	43.64878082275391	990.5419921875	592.2376098632812	499.9155883789062	1074.068481445312	568.4945678710938	772.5886840820312	1082.482177734375	230.1169738769531	224.9670104980469	1265.009033203125	519.3125610351562	412.6581726074219	1123.517333984375	348.4815673828125	66.94390869140625	1193.268188476562	299.0003051757812	107.3956069946289	1164.9912109375	308.4496154785156	131.314453125	1262.310424804688	188.4351196289062	258.7693481445312	1217.645751953125	
195	1.94	387.4598999023438	1011.580993652344	1067.481567382812	294.5894775390625	1007.253173828125	920.7528076171875	339.848876953125	1073.69140625	987.6353759765625	571.9805297851562	1266.391235351562	872.961181640625	325.9829711914062	1206.657592773438	984.6699829101562	385.0083618164062	1472.333129882812	957.7649536132812	545.1943359375	1381.20654296875	884.382080078125	356.4082946777344	1334.572998046875	1050.7119140625	321.4916381835938	1436.692626953125	876.3521118164062	384.6714782714844	1440.880615234375	767.488525390625	333.8183288574219	1318.239868164062	700.1720581054688	337.8401489257812	1106.089965820312	659.12939453125	321.7413330078125	1083.613403320312	764.2894287109375	455.7038879394531	871.2886962890625	656.0691528320312	376.9576721191406	859.1762084960938	629.2976684570312	354.730712890625	999.5264892578125	635.3109130859375	482.6660461425781	686.9375	658.2129516601562	411.4817504882812	779.8419189453125	612.3056640625	477.4734497070312	790.6962890625	638.0567626953125	515.4505615234375	1434.403442382812	1089.598999023438	526.3169555664062	1368.390380859375	1153.189331054688	489.4776916503906	1118.217163085938	1221.729614257812	468.2734069824219	1085.505249023438	1128.557861328125	588.4083862304688	851.8154907226562	1150.852661132812	539.364501953125	845.6828002929688	1222.802734375	498.8622131347656	1035.619506835938	1232.111206054688	559.8668212890625	662.0846557617188	1143.713623046875	595.518798828125	744.62548828125	1150.072021484375	559.671142578125	752.284912109375	1217.386352539062	412.01416015625	1654.17041015625	944.2282104492188	603.4712524414062	1670.769653320312	845.0880126953125	493.1868591308594	1673.081909179688	784.3814086914062	537.5980834960938	1643.88330078125	1001.036315917969	345.1345520019531	945.6820678710938	791.8746337890625	481.7577209472656	940.0314331054688	1105.043701171875	582.2283935546875	960.2911987304688	1031.213989257812	468.7396545410156	956.37451171875	787.4334716796875	531.4569091796875	500.5273742675781	815.1881103515625	451.5758666992188	626.6820678710938	789.0182495117188	464.0924377441406	44.212158203125	899.5928344726562	489.7479553222656	251.1372680664062	848.216552734375	652.5833740234375	41.6027717590332	816.5546875	632.4739990234375	41.18183517456055	884.8390502929688	540.0420532226562	38.57439041137695	819.7698974609375	452.7197265625	43.73992538452148	990.5631713867188	608.39599609375	501.6355285644531	1060.0126953125	579.3890380859375	773.9756469726562	1072.8447265625	251.0566101074219	222.9634704589844	1255.078735351562	536.9655151367188	413.4510803222656	1109.83349609375	371.4509582519531	68.94281005859375	1178.462036132812	320.5896911621094	108.6891098022461	1151.900268554688	331.4988708496094	131.3159484863281	1249.327758789062	207.7053070068359	256.6498107910156	1209.138549804688	
